# xmcd
#
# Track frame offsets:
#	150
#	19350
#	37250
#	59387
#	78787
#	83400
#	104862
#	122687
#	135275
#	152137
#	171437
#	186800
#
# Disc length: 2720 seconds
#
# Revision: 1
# Processed by: cddbd v1.5PL3 Copyright (c) Steve Scherf et al.
# Submitted via: EasyCDDAExtractor 6.0.0.1
#
DISCID=9c0a9e0c
DTITLE=鳳飛飛 - 陪傷心人說往事
DYEAR=1994
DGENRE=Pop
TTITLE0=靜靜燃燒地夏夜
TTITLE1=陪傷心人說往事
TTITLE2=我不知道風是在那一個方向吹
TTITLE3=城市的真相
TTITLE4=花(Hana)
TTITLE5=陽光喚起
TTITLE6=驛站
TTITLE7=世界本來就比天氣善變
TTITLE8=等待成一朵蓮
TTITLE9=四月望雨
TTITLE10=繁華如夢
TTITLE11=夢會成真
EXTD=
EXTT0=
EXTT1=
EXTT2=
EXTT3=
EXTT4=
EXTT5=
EXTT6=
EXTT7=
EXTT8=
EXTT9=
EXTT10=
EXTT11=
PLAYORDER=
